<mxfile host="app.diagrams.net" modified="2022-01-21T10:24:15.123Z" agent="5.0 (Windows NT 10.0; Win64; x64) AppleWebKit/537.36 (KHTML, like Gecko) Chrome/95.0.4638.54 Safari/537.36" etag="-9W_1028haFw7GO8zZNr" version="16.2.6" type="github">
  <diagram id="w_AIIrhfpoO35vBkycTq" name="第 1 页">
    <mxGraphModel dx="3671" dy="1432" grid="1" gridSize="10" guides="1" tooltips="1" connect="1" arrows="1" fold="1" page="1" pageScale="1" pageWidth="827" pageHeight="1169" math="0" shadow="0">
      <root>
        <mxCell id="0" />
        <mxCell id="1" parent="0" />
        <mxCell id="dQ7_-L5XWVC0MtfEueZ6-1" value="&lt;h1 style=&quot;font-size: 28px&quot;&gt;&lt;font style=&quot;font-size: 28px&quot;&gt;&lt;br&gt;&lt;/font&gt;&lt;/h1&gt;&lt;p style=&quot;font-size: 28px&quot;&gt;&lt;font style=&quot;font-size: 28px&quot;&gt;&lt;b&gt;&lt;i&gt;legend:&lt;/i&gt;&lt;/b&gt;&lt;/font&gt;&lt;/p&gt;&lt;p style=&quot;font-size: 28px&quot;&gt;&lt;font color=&quot;#ff00ff&quot; style=&quot;font-size: 28px&quot;&gt;&lt;b&gt;xxxx Function call by APP&lt;/b&gt;&lt;/font&gt;&lt;/p&gt;&lt;p style=&quot;font-size: 28px&quot;&gt;&lt;font style=&quot;font-size: 28px&quot;&gt;&lt;b style=&quot;color: rgb(255 , 128 , 0)&quot;&gt;xxxx Event triggered&amp;nbsp;by UFO&lt;/b&gt;&lt;font color=&quot;#ff00ff&quot; style=&quot;font-size: 28px&quot;&gt;&lt;b&gt;&lt;br&gt;&lt;/b&gt;&lt;/font&gt;&lt;/font&gt;&lt;/p&gt;&lt;p style=&quot;font-size: 28px&quot;&gt;&lt;b&gt;&lt;font style=&quot;font-size: 28px&quot;&gt;&lt;font color=&quot;#000099&quot; style=&quot;font-size: 28px&quot;&gt;xxxx Event triggered&amp;nbsp;by Internal&lt;/font&gt;&lt;font color=&quot;#ff00ff&quot; style=&quot;font-size: 28px&quot;&gt;&lt;br&gt;&lt;/font&gt;&lt;/font&gt;&lt;/b&gt;&lt;/p&gt;&lt;p style=&quot;font-size: 28px&quot;&gt;&lt;font color=&quot;#336600&quot; style=&quot;font-size: 28px&quot;&gt;&lt;b&gt;xxxx Msg Rcv From External&lt;/b&gt;&lt;/font&gt;&lt;/p&gt;&lt;p style=&quot;font-size: 28px&quot;&gt;&lt;font color=&quot;#336600&quot; style=&quot;font-size: 28px&quot;&gt;&lt;b&gt;&lt;br&gt;&lt;/b&gt;&lt;/font&gt;&lt;/p&gt;&lt;p style=&quot;font-size: 28px&quot;&gt;&lt;font color=&quot;#336600&quot; style=&quot;font-size: 28px&quot;&gt;&lt;b&gt;&lt;br&gt;&lt;/b&gt;&lt;/font&gt;&lt;/p&gt;&lt;p style=&quot;font-size: 28px&quot;&gt;&lt;font color=&quot;#336600&quot; style=&quot;font-size: 28px&quot;&gt;&lt;b&gt;S1 Step 1 、S2 Step 2&lt;/b&gt;&lt;/font&gt;&lt;/p&gt;&lt;p style=&quot;font-size: 28px&quot;&gt;&lt;font style=&quot;font-size: 28px&quot;&gt;&lt;br&gt;&lt;/font&gt;&lt;/p&gt;&lt;p style=&quot;font-size: 28px&quot;&gt;&lt;font color=&quot;#ff8000&quot; style=&quot;font-size: 28px&quot;&gt;&lt;br&gt;&lt;/font&gt;&lt;/p&gt;&lt;p style=&quot;font-size: 28px&quot;&gt;&lt;font color=&quot;#ff8000&quot; style=&quot;font-size: 28px&quot;&gt;&lt;br&gt;&lt;/font&gt;&lt;/p&gt;&lt;p style=&quot;font-size: 28px&quot;&gt;&lt;br&gt;&lt;/p&gt;" style="text;html=1;strokeColor=none;fillColor=none;spacing=5;spacingTop=-20;whiteSpace=wrap;overflow=hidden;rounded=0;fontColor=#46495D;" parent="1" vertex="1">
          <mxGeometry x="-500" y="20" width="661" height="560" as="geometry" />
        </mxCell>
        <mxCell id="dQ7_-L5XWVC0MtfEueZ6-2" value="&lt;font size=&quot;1&quot;&gt;&lt;b style=&quot;font-size: 28px&quot;&gt;Ofen used channel status&lt;/b&gt;&lt;/font&gt;" style="text;html=1;align=center;verticalAlign=middle;whiteSpace=wrap;rounded=0;strokeWidth=5;fontColor=#46495D;" parent="1" vertex="1">
          <mxGeometry x="-450" y="420" width="400" height="30" as="geometry" />
        </mxCell>
        <mxCell id="dQ7_-L5XWVC0MtfEueZ6-3" value="" style="ellipse;whiteSpace=wrap;html=1;fillColor=#B2C9AB;strokeColor=#788AA3;strokeWidth=1;fontColor=#46495D;" parent="1" vertex="1">
          <mxGeometry x="-490" y="420" width="50" height="30" as="geometry" />
        </mxCell>
        <mxCell id="zJMsMLb247lZ4SUorlam-59" style="rounded=0;orthogonalLoop=1;jettySize=auto;html=1;entryX=0;entryY=1;entryDx=0;entryDy=0;endSize=24;exitX=0;exitY=0;exitDx=0;exitDy=0;" edge="1" parent="1" source="dQ7_-L5XWVC0MtfEueZ6-5" target="zJMsMLb247lZ4SUorlam-47">
          <mxGeometry relative="1" as="geometry" />
        </mxCell>
        <mxCell id="zJMsMLb247lZ4SUorlam-60" style="edgeStyle=orthogonalEdgeStyle;curved=1;rounded=0;orthogonalLoop=1;jettySize=auto;html=1;endSize=24;" edge="1" parent="1" source="dQ7_-L5XWVC0MtfEueZ6-5" target="dQ7_-L5XWVC0MtfEueZ6-55">
          <mxGeometry relative="1" as="geometry" />
        </mxCell>
        <mxCell id="dQ7_-L5XWVC0MtfEueZ6-5" value="&lt;span style=&quot;font-size: 28px&quot;&gt;Busy&lt;/span&gt;" style="ellipse;whiteSpace=wrap;html=1;fillColor=#B2C9AB;strokeColor=#788AA3;fontColor=#46495D;" parent="1" vertex="1">
          <mxGeometry x="240" y="660" width="260" height="80" as="geometry" />
        </mxCell>
        <mxCell id="dQ7_-L5XWVC0MtfEueZ6-19" value="&lt;h1&gt;坐席初始状态迁移&lt;/h1&gt;&lt;p style=&quot;font-size: 20px&quot;&gt;&lt;br&gt;&lt;/p&gt;&lt;p style=&quot;font-size: 20px&quot;&gt;&lt;br&gt;&lt;/p&gt;&lt;p&gt;&lt;font color=&quot;#ff8000&quot;&gt;&lt;br&gt;&lt;/font&gt;&lt;/p&gt;&lt;p&gt;&lt;font color=&quot;#ff8000&quot;&gt;&lt;br&gt;&lt;/font&gt;&lt;/p&gt;&lt;p&gt;&lt;br&gt;&lt;/p&gt;" style="text;html=1;strokeColor=none;fillColor=none;spacing=5;spacingTop=-20;whiteSpace=wrap;overflow=hidden;rounded=0;fontColor=#46495D;" parent="1" vertex="1">
          <mxGeometry x="300" y="50" width="250" height="60" as="geometry" />
        </mxCell>
        <mxCell id="dQ7_-L5XWVC0MtfEueZ6-20" value="&lt;font size=&quot;1&quot;&gt;&lt;b style=&quot;font-size: 28px&quot;&gt;Ofen used channel status&lt;/b&gt;&lt;/font&gt;" style="text;html=1;align=center;verticalAlign=middle;whiteSpace=wrap;rounded=0;strokeWidth=5;fontColor=#46495D;" parent="1" vertex="1">
          <mxGeometry x="-450" y="420" width="400" height="30" as="geometry" />
        </mxCell>
        <mxCell id="dQ7_-L5XWVC0MtfEueZ6-21" value="" style="ellipse;whiteSpace=wrap;html=1;fillColor=#B2C9AB;strokeColor=#788AA3;strokeWidth=1;fontColor=#46495D;" parent="1" vertex="1">
          <mxGeometry x="-490" y="420" width="50" height="30" as="geometry" />
        </mxCell>
        <mxCell id="zJMsMLb247lZ4SUorlam-52" style="edgeStyle=orthogonalEdgeStyle;curved=1;rounded=0;orthogonalLoop=1;jettySize=auto;html=1;entryX=0;entryY=0.5;entryDx=0;entryDy=0;endSize=24;" edge="1" parent="1" source="dQ7_-L5XWVC0MtfEueZ6-55" target="zJMsMLb247lZ4SUorlam-47">
          <mxGeometry relative="1" as="geometry">
            <Array as="points">
              <mxPoint x="30" y="1210" />
              <mxPoint x="30" y="220" />
            </Array>
          </mxGeometry>
        </mxCell>
        <mxCell id="zJMsMLb247lZ4SUorlam-61" style="edgeStyle=orthogonalEdgeStyle;curved=1;rounded=0;orthogonalLoop=1;jettySize=auto;html=1;endSize=24;" edge="1" parent="1" source="dQ7_-L5XWVC0MtfEueZ6-55" target="dQ7_-L5XWVC0MtfEueZ6-64">
          <mxGeometry relative="1" as="geometry" />
        </mxCell>
        <mxCell id="zJMsMLb247lZ4SUorlam-86" value="" style="edgeStyle=none;rounded=0;orthogonalLoop=1;jettySize=auto;html=1;fontColor=#FF8000;endSize=24;" edge="1" parent="1" source="dQ7_-L5XWVC0MtfEueZ6-55" target="zJMsMLb247lZ4SUorlam-85">
          <mxGeometry relative="1" as="geometry" />
        </mxCell>
        <mxCell id="zJMsMLb247lZ4SUorlam-90" value="" style="edgeStyle=none;rounded=0;orthogonalLoop=1;jettySize=auto;html=1;fontColor=#FF8000;endSize=24;" edge="1" parent="1" source="dQ7_-L5XWVC0MtfEueZ6-55" target="zJMsMLb247lZ4SUorlam-89">
          <mxGeometry relative="1" as="geometry" />
        </mxCell>
        <mxCell id="dQ7_-L5XWVC0MtfEueZ6-55" value="&lt;span style=&quot;font-size: 28px&quot;&gt;Idle&lt;/span&gt;" style="ellipse;whiteSpace=wrap;html=1;fillColor=#B2C9AB;strokeColor=#788AA3;fontColor=#46495D;" parent="1" vertex="1">
          <mxGeometry x="239" y="1170" width="260" height="80" as="geometry" />
        </mxCell>
        <mxCell id="zJMsMLb247lZ4SUorlam-55" style="rounded=0;orthogonalLoop=1;jettySize=auto;html=1;entryX=0;entryY=1;entryDx=0;entryDy=0;endSize=24;" edge="1" parent="1" source="dQ7_-L5XWVC0MtfEueZ6-64" target="dQ7_-L5XWVC0MtfEueZ6-55">
          <mxGeometry relative="1" as="geometry" />
        </mxCell>
        <mxCell id="dQ7_-L5XWVC0MtfEueZ6-64" value="&lt;span style=&quot;font-size: 28px&quot;&gt;Rest&lt;/span&gt;" style="ellipse;whiteSpace=wrap;html=1;fillColor=#B2C9AB;strokeColor=#788AA3;fontColor=#46495D;" parent="1" vertex="1">
          <mxGeometry x="-390" y="1720" width="260" height="80" as="geometry" />
        </mxCell>
        <mxCell id="zJMsMLb247lZ4SUorlam-48" style="edgeStyle=orthogonalEdgeStyle;rounded=0;orthogonalLoop=1;jettySize=auto;html=1;entryX=0.5;entryY=0;entryDx=0;entryDy=0;endSize=24;" edge="1" parent="1" source="zJMsMLb247lZ4SUorlam-47" target="dQ7_-L5XWVC0MtfEueZ6-5">
          <mxGeometry relative="1" as="geometry" />
        </mxCell>
        <mxCell id="zJMsMLb247lZ4SUorlam-47" value="&lt;span style=&quot;font-size: 28px&quot;&gt;None&lt;/span&gt;" style="ellipse;whiteSpace=wrap;html=1;fillColor=#B2C9AB;strokeColor=#788AA3;fontColor=#46495D;" vertex="1" parent="1">
          <mxGeometry x="241" y="180" width="260" height="80" as="geometry" />
        </mxCell>
        <mxCell id="zJMsMLb247lZ4SUorlam-82" style="edgeStyle=none;rounded=0;orthogonalLoop=1;jettySize=auto;html=1;entryX=1;entryY=0.5;entryDx=0;entryDy=0;fontColor=#FF8000;endSize=24;" edge="1" parent="1" source="zJMsMLb247lZ4SUorlam-68" target="dQ7_-L5XWVC0MtfEueZ6-64">
          <mxGeometry relative="1" as="geometry" />
        </mxCell>
        <mxCell id="zJMsMLb247lZ4SUorlam-94" value="" style="edgeStyle=none;rounded=0;orthogonalLoop=1;jettySize=auto;html=1;fontColor=#FF8000;endSize=24;" edge="1" parent="1" source="zJMsMLb247lZ4SUorlam-68" target="zJMsMLb247lZ4SUorlam-93">
          <mxGeometry relative="1" as="geometry" />
        </mxCell>
        <mxCell id="zJMsMLb247lZ4SUorlam-99" value="" style="rounded=0;orthogonalLoop=1;jettySize=auto;html=1;fontColor=#FF8000;endSize=24;" edge="1" parent="1" source="zJMsMLb247lZ4SUorlam-68" target="zJMsMLb247lZ4SUorlam-98">
          <mxGeometry relative="1" as="geometry" />
        </mxCell>
        <mxCell id="zJMsMLb247lZ4SUorlam-102" value="" style="rounded=0;orthogonalLoop=1;jettySize=auto;html=1;fontColor=#FF8000;endSize=24;" edge="1" parent="1" source="zJMsMLb247lZ4SUorlam-68" target="zJMsMLb247lZ4SUorlam-101">
          <mxGeometry relative="1" as="geometry" />
        </mxCell>
        <mxCell id="zJMsMLb247lZ4SUorlam-109" value="" style="rounded=0;orthogonalLoop=1;jettySize=auto;html=1;fontColor=#FF8000;endSize=24;" edge="1" parent="1" source="zJMsMLb247lZ4SUorlam-68" target="zJMsMLb247lZ4SUorlam-108">
          <mxGeometry relative="1" as="geometry" />
        </mxCell>
        <mxCell id="zJMsMLb247lZ4SUorlam-115" value="" style="edgeStyle=none;rounded=0;orthogonalLoop=1;jettySize=auto;html=1;fontColor=#FF8000;endSize=24;" edge="1" parent="1" source="zJMsMLb247lZ4SUorlam-68" target="zJMsMLb247lZ4SUorlam-114">
          <mxGeometry relative="1" as="geometry" />
        </mxCell>
        <mxCell id="zJMsMLb247lZ4SUorlam-68" value="&lt;span style=&quot;font-size: 28px&quot;&gt;Talking&lt;/span&gt;" style="ellipse;whiteSpace=wrap;html=1;fillColor=#B2C9AB;strokeColor=#788AA3;fontColor=#46495D;" vertex="1" parent="1">
          <mxGeometry x="250" y="2130" width="260" height="80" as="geometry" />
        </mxCell>
        <mxCell id="zJMsMLb247lZ4SUorlam-87" style="edgeStyle=none;rounded=0;orthogonalLoop=1;jettySize=auto;html=1;entryX=1;entryY=0;entryDx=0;entryDy=0;fontColor=#FF8000;endSize=24;" edge="1" parent="1" source="zJMsMLb247lZ4SUorlam-85" target="zJMsMLb247lZ4SUorlam-68">
          <mxGeometry relative="1" as="geometry" />
        </mxCell>
        <mxCell id="zJMsMLb247lZ4SUorlam-85" value="&lt;span style=&quot;font-size: 28px&quot;&gt;Calling&lt;/span&gt;" style="ellipse;whiteSpace=wrap;html=1;fillColor=#B2C9AB;strokeColor=#788AA3;fontColor=#46495D;" vertex="1" parent="1">
          <mxGeometry x="900" y="1640" width="260" height="80" as="geometry" />
        </mxCell>
        <mxCell id="zJMsMLb247lZ4SUorlam-88" value="&lt;span style=&quot;font-family: &amp;#34;consolas&amp;#34; , &amp;#34;courier new&amp;#34; , monospace&quot;&gt;ACTIVE&lt;/span&gt;&lt;span style=&quot;font-family: &amp;#34;consolas&amp;#34; , &amp;#34;courier new&amp;#34; , monospace&quot;&gt;&lt;br&gt;&lt;/span&gt;&lt;span style=&quot;color: rgb(0 , 0 , 255) ; font-family: &amp;#34;consolas&amp;#34; , &amp;#34;courier new&amp;#34; , monospace&quot;&gt;onChannel&lt;/span&gt;&lt;span style=&quot;color: rgb(0 , 0 , 255) ; font-family: &amp;#34;consolas&amp;#34; , &amp;#34;courier new&amp;#34; , monospace&quot;&gt;Active&lt;/span&gt;&lt;span style=&quot;color: rgb(0 , 0 , 255) ; font-family: &amp;#34;consolas&amp;#34; , &amp;#34;courier new&amp;#34; , monospace&quot;&gt;&lt;br&gt;&lt;/span&gt;" style="rounded=0;whiteSpace=wrap;html=1;labelBackgroundColor=none;fontSize=20;fontColor=#FF8000;fillColor=#FFFFFF;gradientColor=none;strokeColor=none;" vertex="1" parent="1">
          <mxGeometry x="259" y="1770" width="240" height="80" as="geometry" />
        </mxCell>
        <mxCell id="zJMsMLb247lZ4SUorlam-91" style="edgeStyle=none;rounded=0;orthogonalLoop=1;jettySize=auto;html=1;fontColor=#FF8000;endSize=24;" edge="1" parent="1" source="zJMsMLb247lZ4SUorlam-89" target="zJMsMLb247lZ4SUorlam-68">
          <mxGeometry relative="1" as="geometry" />
        </mxCell>
        <mxCell id="zJMsMLb247lZ4SUorlam-89" value="&lt;span style=&quot;font-size: 28px&quot;&gt;Ringing&lt;/span&gt;" style="ellipse;whiteSpace=wrap;html=1;fillColor=#B2C9AB;strokeColor=#788AA3;fontColor=#46495D;" vertex="1" parent="1">
          <mxGeometry x="241" y="1674" width="260" height="80" as="geometry" />
        </mxCell>
        <mxCell id="zJMsMLb247lZ4SUorlam-127" style="edgeStyle=none;rounded=0;orthogonalLoop=1;jettySize=auto;html=1;entryX=1;entryY=0;entryDx=0;entryDy=0;fontColor=#FF8000;endSize=24;" edge="1" parent="1" source="zJMsMLb247lZ4SUorlam-93" target="zJMsMLb247lZ4SUorlam-116">
          <mxGeometry relative="1" as="geometry" />
        </mxCell>
        <mxCell id="zJMsMLb247lZ4SUorlam-148" style="edgeStyle=none;rounded=0;orthogonalLoop=1;jettySize=auto;html=1;entryX=0;entryY=0.5;entryDx=0;entryDy=0;fontColor=#FF8000;endSize=24;" edge="1" parent="1" source="zJMsMLb247lZ4SUorlam-93" target="zJMsMLb247lZ4SUorlam-114">
          <mxGeometry relative="1" as="geometry" />
        </mxCell>
        <mxCell id="zJMsMLb247lZ4SUorlam-93" value="&lt;span style=&quot;font-size: 28px&quot;&gt;Consulting&lt;/span&gt;" style="ellipse;whiteSpace=wrap;html=1;fillColor=#B2C9AB;strokeColor=#788AA3;fontColor=#46495D;" vertex="1" parent="1">
          <mxGeometry x="670" y="2730" width="260" height="80" as="geometry" />
        </mxCell>
        <mxCell id="zJMsMLb247lZ4SUorlam-103" style="edgeStyle=none;rounded=0;orthogonalLoop=1;jettySize=auto;html=1;fontColor=#FF8000;endSize=24;" edge="1" parent="1" source="zJMsMLb247lZ4SUorlam-98" target="zJMsMLb247lZ4SUorlam-101">
          <mxGeometry relative="1" as="geometry" />
        </mxCell>
        <mxCell id="zJMsMLb247lZ4SUorlam-126" style="edgeStyle=none;rounded=0;orthogonalLoop=1;jettySize=auto;html=1;entryX=1;entryY=0;entryDx=0;entryDy=0;fontColor=#FF8000;endSize=24;" edge="1" parent="1" source="zJMsMLb247lZ4SUorlam-98" target="zJMsMLb247lZ4SUorlam-116">
          <mxGeometry relative="1" as="geometry" />
        </mxCell>
        <mxCell id="zJMsMLb247lZ4SUorlam-98" value="&lt;span style=&quot;font-size: 28px&quot;&gt;Monitoring&lt;/span&gt;" style="ellipse;whiteSpace=wrap;html=1;fillColor=#B2C9AB;strokeColor=#788AA3;fontColor=#46495D;" vertex="1" parent="1">
          <mxGeometry x="70" y="2720" width="260" height="80" as="geometry" />
        </mxCell>
        <mxCell id="zJMsMLb247lZ4SUorlam-145" style="edgeStyle=none;rounded=0;orthogonalLoop=1;jettySize=auto;html=1;entryX=0.5;entryY=0;entryDx=0;entryDy=0;fontColor=#FF8000;endSize=24;" edge="1" parent="1" source="zJMsMLb247lZ4SUorlam-101" target="zJMsMLb247lZ4SUorlam-116">
          <mxGeometry relative="1" as="geometry" />
        </mxCell>
        <mxCell id="zJMsMLb247lZ4SUorlam-101" value="&lt;span style=&quot;font-size: 28px&quot;&gt;Barging&lt;/span&gt;" style="ellipse;whiteSpace=wrap;html=1;fillColor=#B2C9AB;strokeColor=#788AA3;fontColor=#46495D;" vertex="1" parent="1">
          <mxGeometry x="-350" y="2720" width="260" height="80" as="geometry" />
        </mxCell>
        <mxCell id="zJMsMLb247lZ4SUorlam-105" value="&lt;span style=&quot;font-family: &amp;#34;consolas&amp;#34; , &amp;#34;courier new&amp;#34; , monospace&quot;&gt;HANGUP&lt;/span&gt;&lt;span style=&quot;font-family: &amp;#34;consolas&amp;#34; , &amp;#34;courier new&amp;#34; , monospace&quot;&gt;&lt;br&gt;&lt;/span&gt;&lt;div style=&quot;font-family: &amp;#34;consolas&amp;#34; , &amp;#34;courier new&amp;#34; , monospace ; line-height: 19px ; font-size: 20px&quot;&gt;&lt;font style=&quot;font-size: 20px&quot; color=&quot;#0000ff&quot;&gt;onChannelHangup&lt;/font&gt;&lt;/div&gt;" style="rounded=0;whiteSpace=wrap;html=1;labelBackgroundColor=none;fontSize=20;fontColor=#FF8000;fillColor=#FFFFFF;gradientColor=none;strokeColor=none;" vertex="1" parent="1">
          <mxGeometry x="200" y="3210" width="240" height="80" as="geometry" />
        </mxCell>
        <mxCell id="zJMsMLb247lZ4SUorlam-147" style="edgeStyle=none;rounded=0;orthogonalLoop=1;jettySize=auto;html=1;entryX=1;entryY=0;entryDx=0;entryDy=0;fontColor=#FF8000;endSize=24;" edge="1" parent="1" source="zJMsMLb247lZ4SUorlam-108" target="zJMsMLb247lZ4SUorlam-116">
          <mxGeometry relative="1" as="geometry" />
        </mxCell>
        <mxCell id="zJMsMLb247lZ4SUorlam-108" value="&lt;span style=&quot;font-size: 28px&quot;&gt;Whispering&lt;/span&gt;" style="ellipse;whiteSpace=wrap;html=1;fillColor=#B2C9AB;strokeColor=#788AA3;fontColor=#46495D;" vertex="1" parent="1">
          <mxGeometry x="360" y="2720" width="260" height="80" as="geometry" />
        </mxCell>
        <mxCell id="zJMsMLb247lZ4SUorlam-113" style="edgeStyle=none;rounded=0;orthogonalLoop=1;jettySize=auto;html=1;exitX=0.5;exitY=0;exitDx=0;exitDy=0;fontColor=#FF8000;endSize=24;" edge="1" parent="1">
          <mxGeometry relative="1" as="geometry">
            <mxPoint x="950" y="1510" as="sourcePoint" />
            <mxPoint x="950" y="1510" as="targetPoint" />
          </mxGeometry>
        </mxCell>
        <mxCell id="zJMsMLb247lZ4SUorlam-146" style="edgeStyle=none;rounded=0;orthogonalLoop=1;jettySize=auto;html=1;entryX=1;entryY=0;entryDx=0;entryDy=0;fontColor=#FF8000;endSize=24;" edge="1" parent="1" source="zJMsMLb247lZ4SUorlam-114" target="zJMsMLb247lZ4SUorlam-116">
          <mxGeometry relative="1" as="geometry" />
        </mxCell>
        <mxCell id="zJMsMLb247lZ4SUorlam-114" value="&lt;span style=&quot;font-size: 28px&quot;&gt;MultiTalking&lt;/span&gt;" style="ellipse;whiteSpace=wrap;html=1;fillColor=#B2C9AB;strokeColor=#788AA3;fontColor=#46495D;" vertex="1" parent="1">
          <mxGeometry x="1180" y="2740" width="260" height="80" as="geometry" />
        </mxCell>
        <mxCell id="zJMsMLb247lZ4SUorlam-116" value="&lt;font style=&quot;font-size: 20px&quot;&gt;B&lt;/font&gt;" style="ellipse;whiteSpace=wrap;html=1;aspect=fixed;rounded=1;labelBackgroundColor=none;fontSize=20;fontColor=#000000;strokeColor=default;fillColor=#FFFFFF;gradientColor=none;" vertex="1" parent="1">
          <mxGeometry x="290" y="3160" width="40" height="40" as="geometry" />
        </mxCell>
        <mxCell id="zJMsMLb247lZ4SUorlam-129" style="edgeStyle=none;rounded=0;orthogonalLoop=1;jettySize=auto;html=1;fontColor=#FF8000;endSize=24;" edge="1" parent="1" source="zJMsMLb247lZ4SUorlam-128" target="dQ7_-L5XWVC0MtfEueZ6-5">
          <mxGeometry relative="1" as="geometry" />
        </mxCell>
        <mxCell id="zJMsMLb247lZ4SUorlam-128" value="&lt;font style=&quot;font-size: 20px&quot;&gt;B&lt;/font&gt;" style="ellipse;whiteSpace=wrap;html=1;aspect=fixed;rounded=1;labelBackgroundColor=none;fontSize=20;fontColor=#000000;strokeColor=default;fillColor=#FFFFFF;gradientColor=none;" vertex="1" parent="1">
          <mxGeometry x="800" y="670" width="40" height="40" as="geometry" />
        </mxCell>
        <mxCell id="zJMsMLb247lZ4SUorlam-131" style="edgeStyle=none;rounded=0;orthogonalLoop=1;jettySize=auto;html=1;fontColor=#FF8000;endSize=24;" edge="1" parent="1" source="zJMsMLb247lZ4SUorlam-130" target="dQ7_-L5XWVC0MtfEueZ6-55">
          <mxGeometry relative="1" as="geometry" />
        </mxCell>
        <mxCell id="zJMsMLb247lZ4SUorlam-130" value="&lt;font style=&quot;font-size: 20px&quot;&gt;B&lt;/font&gt;" style="ellipse;whiteSpace=wrap;html=1;aspect=fixed;rounded=1;labelBackgroundColor=none;fontSize=20;fontColor=#000000;strokeColor=default;fillColor=#FFFFFF;gradientColor=none;" vertex="1" parent="1">
          <mxGeometry x="780" y="1190" width="40" height="40" as="geometry" />
        </mxCell>
        <mxCell id="zJMsMLb247lZ4SUorlam-151" value="&lt;span style=&quot;font-family: &amp;#34;consolas&amp;#34; , &amp;#34;courier new&amp;#34; , monospace&quot;&gt;ACTIVE&lt;/span&gt;&lt;span style=&quot;font-family: &amp;#34;consolas&amp;#34; , &amp;#34;courier new&amp;#34; , monospace&quot;&gt;&lt;br&gt;&lt;/span&gt;&lt;span style=&quot;color: rgb(0 , 0 , 255) ; font-family: &amp;#34;consolas&amp;#34; , &amp;#34;courier new&amp;#34; , monospace&quot;&gt;onChannel&lt;/span&gt;&lt;span style=&quot;color: rgb(0 , 0 , 255) ; font-family: &amp;#34;consolas&amp;#34; , &amp;#34;courier new&amp;#34; , monospace&quot;&gt;Active&lt;/span&gt;&lt;span style=&quot;color: rgb(0 , 0 , 255) ; font-family: &amp;#34;consolas&amp;#34; , &amp;#34;courier new&amp;#34; , monospace&quot;&gt;&lt;br&gt;&lt;/span&gt;" style="rounded=0;whiteSpace=wrap;html=1;labelBackgroundColor=none;fontSize=20;fontColor=#FF8000;fillColor=#FFFFFF;gradientColor=none;strokeColor=none;" vertex="1" parent="1">
          <mxGeometry x="690" y="1820" width="240" height="80" as="geometry" />
        </mxCell>
        <mxCell id="zJMsMLb247lZ4SUorlam-152" value="&lt;div style=&quot;font-family: &amp;#34;consolas&amp;#34; , &amp;#34;courier new&amp;#34; , monospace ; line-height: 19px ; font-size: 20px&quot;&gt;HANGUP&lt;br&gt;&lt;div style=&quot;line-height: 19px&quot;&gt;&lt;font color=&quot;#0000ff&quot;&gt;onChannelHangup&lt;/font&gt;&lt;/div&gt;&lt;/div&gt;" style="rounded=0;whiteSpace=wrap;html=1;labelBackgroundColor=none;fontSize=20;fontColor=#FF8000;fillColor=#FFFFFF;gradientColor=none;strokeColor=none;" vertex="1" parent="1">
          <mxGeometry x="-70" y="1880" width="240" height="80" as="geometry" />
        </mxCell>
      </root>
    </mxGraphModel>
  </diagram>
</mxfile>
